<svg 
 xmlns="http://www.w3.org/2000/svg"
 xmlns:xlink="http://www.w3.org/1999/xlink"
 width="25px" height="27px">
<path fill-rule="evenodd"  fill="rgb(23, 25, 30)"
 d="M12.934,18.761 L12.934,17.188 L11.659,17.188 L11.659,18.793 C10.231,19.082 9.105,20.193 8.788,21.609 L0.353,21.609 L0.353,22.887 L8.726,22.887 C8.956,24.713 10.510,26.125 12.400,26.125 C14.287,26.125 15.840,24.711 16.070,22.885 L24.645,22.885 L24.645,21.610 L16.009,21.610 C15.677,20.129 14.457,18.983 12.934,18.761 ZM12.400,24.849 C11.058,24.848 9.973,23.761 9.970,22.422 C9.973,21.082 11.058,19.998 12.400,19.994 C13.738,19.998 14.824,21.082 14.826,22.422 C14.824,23.761 13.738,24.848 12.400,24.849 ZM22.737,0.875 L2.262,0.875 C1.144,0.879 0.239,1.783 0.237,2.902 L0.237,14.297 C0.239,15.415 1.144,16.320 2.262,16.324 L22.737,16.324 C23.855,16.320 24.760,15.415 24.763,14.297 L24.763,2.902 C24.760,1.783 23.855,0.879 22.737,0.875 ZM23.488,14.297 C23.486,14.704 23.146,15.045 22.737,15.046 L2.262,15.046 C1.853,15.045 1.513,14.704 1.511,14.297 L1.513,2.902 C1.513,2.494 1.853,2.153 2.262,2.150 L22.737,2.153 C23.146,2.153 23.486,2.494 23.488,2.902 L23.486,14.297 L23.488,14.297 Z"/>
</svg>