<svg 
 xmlns="http://www.w3.org/2000/svg"
 xmlns:xlink="http://www.w3.org/1999/xlink"
 width="30px" height="27px">
<path fill-rule="evenodd"  fill="rgb(23, 25, 30)"
 d="M27.433,8.736 L20.872,8.734 C20.770,7.026 20.284,5.479 19.513,4.286 C18.702,3.035 17.520,2.155 16.145,2.055 L16.145,2.035 L15.897,2.035 L15.895,2.035 L15.892,2.035 L9.450,2.035 C9.286,1.144 8.511,0.469 7.573,0.467 L5.817,0.467 C4.761,0.469 3.907,1.325 3.903,2.381 L3.903,5.599 L1.138,5.599 C0.788,5.599 0.501,5.886 0.501,6.236 C0.501,6.588 0.788,6.875 1.138,6.875 L3.903,6.875 L3.903,12.191 L1.138,12.191 C0.788,12.191 0.501,12.479 0.501,12.829 L0.501,12.829 C0.501,13.181 0.788,13.469 1.138,13.469 L3.903,13.469 L3.903,16.019 C3.907,17.077 4.761,17.929 5.817,17.933 L7.573,17.933 C8.386,17.929 9.073,17.424 9.350,16.712 L15.886,16.712 C15.890,16.712 15.892,16.712 15.892,16.712 L15.901,16.712 L16.145,16.712 L16.145,16.691 C17.520,16.591 18.702,15.712 19.513,14.458 C20.284,13.270 20.770,11.721 20.872,10.012 L27.433,10.012 C27.778,10.012 28.071,10.304 28.071,10.649 L28.071,21.603 C28.071,21.950 27.778,22.240 27.433,22.242 L13.501,22.242 C12.444,22.243 11.589,23.097 11.587,24.155 L11.587,26.548 L12.862,26.548 L12.862,24.155 C12.862,23.808 13.153,23.517 13.501,23.517 L27.433,23.517 C28.489,23.515 29.343,22.660 29.347,21.603 L29.347,10.649 C29.343,9.592 28.489,8.736 27.433,8.736 ZM8.210,16.019 C8.210,16.365 7.919,16.656 7.573,16.656 L5.817,16.656 C5.472,16.656 5.181,16.365 5.179,16.019 L5.179,2.381 C5.181,2.035 5.472,1.744 5.817,1.742 L7.573,1.742 C7.919,1.744 8.210,2.035 8.210,2.381 L8.210,16.019 ZM9.513,15.433 L9.513,3.313 L13.063,3.313 L14.870,3.313 L14.870,3.551 L14.870,15.195 L14.870,15.433 L13.063,15.433 L9.513,15.433 ZM18.442,13.762 C17.790,14.757 16.979,15.322 16.145,15.416 L16.145,3.331 C16.979,3.424 17.790,3.989 18.442,4.983 C19.151,6.071 19.618,7.635 19.616,9.375 C19.618,11.111 19.151,12.676 18.442,13.762 Z"/>
</svg>