<svg 
 xmlns="http://www.w3.org/2000/svg"
 xmlns:xlink="http://www.w3.org/1999/xlink"
 width="27px" height="26px">
<path fill-rule="evenodd"  fill="rgb(23, 25, 30)"
 d="M22.656,4.749 L24.805,6.899 C24.933,7.026 24.998,7.195 24.998,7.369 C24.998,7.544 24.933,7.712 24.803,7.839 L24.805,7.839 L11.117,21.526 L12.020,22.429 L25.708,8.741 C26.085,8.364 26.274,7.862 26.274,7.369 C26.274,6.874 26.085,6.374 25.708,5.997 L20.502,0.794 C20.125,0.415 19.626,0.225 19.129,0.225 C18.635,0.225 18.135,0.415 17.756,0.794 L4.072,14.480 L4.974,15.382 L18.661,1.696 C18.790,1.567 18.957,1.503 19.129,1.503 C19.304,1.503 19.471,1.567 19.600,1.696 L21.752,3.846 L8.771,16.827 L9.674,17.729 L22.656,4.749 ZM3.274,17.987 C3.009,17.727 2.698,17.520 2.283,17.513 C1.959,17.505 1.624,17.692 1.454,17.938 C1.274,18.185 1.203,18.460 1.176,18.754 L0.734,23.911 L0.733,23.909 C0.727,23.964 0.726,24.020 0.726,24.077 C0.723,24.539 0.901,24.977 1.214,25.286 C1.522,25.595 1.957,25.774 2.418,25.774 L2.422,25.774 C2.472,25.774 2.522,25.772 2.574,25.768 L7.749,25.325 C8.041,25.299 8.318,25.225 8.562,25.046 C8.809,24.874 8.997,24.542 8.989,24.218 C8.981,23.804 8.776,23.491 8.515,23.227 L3.274,17.987 ZM2.476,24.497 C2.463,24.497 2.443,24.499 2.422,24.499 C2.140,24.478 2.021,24.360 2.001,24.077 C2.001,24.075 2.001,24.056 1.998,24.024 L2.004,24.024 L2.439,18.956 L7.545,24.062 L2.476,24.497 Z"/>
</svg>