<svg 
 xmlns="http://www.w3.org/2000/svg"
 xmlns:xlink="http://www.w3.org/1999/xlink"
 width="27px" height="27px">
<path fill-rule="evenodd"  fill="rgb(255, 255, 255)"
 d="M26.694,10.180 C26.694,10.049 26.624,9.938 26.535,9.848 C26.523,9.840 26.526,9.819 26.513,9.811 L23.558,7.520 L23.558,0.612 C23.558,0.354 23.349,0.147 23.091,0.147 L4.278,0.147 C4.020,0.147 3.811,0.354 3.811,0.612 L3.811,7.520 L0.854,9.811 C0.841,9.819 0.846,9.840 0.835,9.848 C0.743,9.938 0.675,10.049 0.675,10.180 L0.675,25.853 C0.675,25.885 0.692,25.910 0.698,25.937 C0.703,25.961 0.692,25.984 0.698,26.008 C0.706,26.023 0.722,26.031 0.729,26.049 C0.752,26.097 0.785,26.132 0.821,26.172 C0.851,26.199 0.870,26.226 0.906,26.246 C0.917,26.254 0.924,26.267 0.935,26.273 C0.995,26.301 1.060,26.314 1.121,26.316 C1.130,26.318 1.133,26.322 1.142,26.322 L26.227,26.322 C26.297,26.322 26.368,26.307 26.433,26.275 C26.448,26.267 26.455,26.254 26.466,26.246 C26.497,26.228 26.517,26.203 26.542,26.175 C26.581,26.137 26.614,26.097 26.640,26.049 C26.648,26.031 26.664,26.023 26.669,26.008 C26.675,25.984 26.664,25.963 26.671,25.939 C26.675,25.910 26.694,25.887 26.694,25.857 L26.694,10.180 ZM1.606,11.131 L3.991,12.979 L10.492,18.016 L1.606,24.900 L1.606,11.131 ZM21.940,21.941 L16.880,18.016 L25.380,11.426 L25.761,11.131 L25.761,24.904 L21.940,21.941 ZM25.468,10.180 L23.558,11.658 L23.558,8.702 L25.468,10.180 ZM4.745,1.079 L22.624,1.079 L22.624,7.749 L22.624,12.223 L13.686,19.152 L4.745,12.223 L4.745,7.749 L4.745,1.079 ZM3.811,8.702 L3.811,11.658 L3.253,11.227 L1.902,10.180 L3.811,8.702 ZM2.505,25.387 L11.253,18.608 L13.400,20.269 C13.567,20.400 13.805,20.400 13.974,20.269 L16.118,18.608 L24.862,25.389 L2.505,25.387 Z"/>
</svg>