<svg 
 xmlns="http://www.w3.org/2000/svg"
 xmlns:xlink="http://www.w3.org/1999/xlink"
 width="25px" height="30px">
<path fill-rule="evenodd"  fill="rgb(255, 255, 255)"
 d="M23.902,18.498 L21.995,20.410 L20.424,18.838 C23.875,15.000 23.787,9.089 20.096,5.399 C18.246,3.550 15.788,2.532 13.177,2.532 C10.735,2.532 8.450,3.452 6.653,5.071 L5.082,3.497 L6.992,1.589 C7.193,1.387 7.193,1.063 6.992,0.862 C6.793,0.661 6.467,0.661 6.266,0.862 L3.991,3.132 C1.537,5.589 0.189,8.848 0.189,12.319 C0.189,15.788 1.539,19.047 3.994,21.500 C6.354,23.861 9.461,25.187 12.782,25.283 C12.594,26.256 11.937,28.355 9.679,28.355 L9.036,28.355 C8.752,28.355 8.521,28.586 8.521,28.867 C8.521,29.150 8.752,29.381 9.036,29.381 L17.312,29.381 C17.598,29.381 17.830,29.150 17.830,28.867 C17.830,28.586 17.598,28.355 17.312,28.355 L12.331,28.355 C13.250,27.476 13.675,26.224 13.822,25.271 C17.045,25.113 20.059,23.798 22.357,21.500 L24.631,19.227 C24.832,19.026 24.832,18.701 24.631,18.498 C24.427,18.297 24.103,18.297 23.902,18.498 L23.902,18.498 ZM19.369,6.128 C22.784,9.540 22.784,15.096 19.369,18.510 C17.716,20.164 15.516,21.076 13.177,21.076 C10.838,21.076 8.639,20.164 6.984,18.510 C3.569,15.096 3.564,9.540 6.979,6.128 C8.637,4.472 10.834,3.559 13.177,3.559 C15.514,3.559 17.715,4.472 19.369,6.128 L19.369,6.128 ZM1.216,12.319 C1.216,9.300 2.361,6.473 4.391,4.260 L5.926,5.800 C2.478,9.636 2.564,15.545 6.256,19.239 C8.105,21.086 10.563,22.105 13.177,22.105 C15.616,22.105 17.898,21.186 19.698,19.565 L21.230,21.100 C19.021,23.129 16.195,24.275 13.177,24.275 C9.980,24.275 6.977,23.031 4.722,20.774 C2.461,18.516 1.216,15.512 1.216,12.319 L1.216,12.319 Z"/>
</svg>