<svg 
 xmlns="http://www.w3.org/2000/svg"
 xmlns:xlink="http://www.w3.org/1999/xlink"
 width="30px" height="30px">
<path fill-rule="evenodd"  fill="rgb(255, 255, 255)"
 d="M9.740,10.749 C8.502,10.749 7.497,11.757 7.497,12.991 C7.497,14.227 8.502,15.233 9.740,15.233 C10.974,15.233 11.978,14.227 11.978,12.991 C11.978,11.757 10.974,10.749 9.740,10.749 ZM9.740,14.206 C9.071,14.206 8.524,13.661 8.524,12.991 C8.524,12.323 9.071,11.778 9.740,11.778 C10.407,11.778 10.951,12.323 10.951,12.991 C10.951,13.661 10.407,14.206 9.740,14.206 ZM14.998,10.749 C13.763,10.749 12.756,11.757 12.756,12.991 C12.756,14.227 13.763,15.233 14.998,15.233 C16.234,15.233 17.242,14.227 17.242,12.991 C17.242,11.757 16.234,10.749 14.998,10.749 ZM14.998,14.206 C14.330,14.206 13.785,13.661 13.785,12.991 C13.785,12.323 14.330,11.778 14.998,11.778 C15.668,11.778 16.212,12.323 16.212,12.991 C16.212,13.661 15.668,14.206 14.998,14.206 ZM20.257,10.749 C19.021,10.749 18.014,11.757 18.014,12.991 C18.014,14.227 19.021,15.233 20.257,15.233 C21.495,15.233 22.500,14.227 22.500,12.991 C22.500,11.757 21.495,10.749 20.257,10.749 ZM20.257,14.206 C19.590,14.206 19.046,13.661 19.046,12.991 C19.046,12.323 19.590,11.778 20.257,11.778 C20.927,11.778 21.471,12.323 21.471,12.991 C21.471,13.661 20.927,14.206 20.257,14.206 ZM14.998,0.299 C7.181,0.299 0.822,5.956 0.822,12.907 C0.822,19.860 7.181,25.516 14.998,25.516 C16.514,25.516 18.014,25.296 19.470,24.862 L24.309,29.700 L24.309,22.413 C27.408,20.011 29.178,16.559 29.178,12.907 C29.178,5.956 22.819,0.299 14.998,0.299 ZM23.488,21.745 L23.280,21.899 L23.280,27.218 L19.757,23.694 L19.458,23.790 C18.009,24.253 16.511,24.487 14.998,24.487 C7.750,24.487 1.849,19.294 1.849,12.907 C1.849,6.522 7.750,1.329 14.998,1.329 C22.248,1.329 28.151,6.522 28.151,12.907 C28.151,16.315 26.452,19.534 23.488,21.745 Z"/>
</svg>