<svg 
 xmlns="http://www.w3.org/2000/svg"
 xmlns:xlink="http://www.w3.org/1999/xlink"
 width="18px" height="15px">
<path fill-rule="evenodd"  fill="rgb(255, 255, 255)"
 d="M18.006,2.203 C17.364,2.488 16.672,2.681 15.946,2.767 C16.686,2.324 17.256,1.621 17.524,0.781 C16.831,1.193 16.061,1.492 15.245,1.654 C14.590,0.955 13.657,0.519 12.623,0.519 C10.641,0.519 9.034,2.127 9.034,4.109 C9.034,4.390 9.067,4.663 9.127,4.927 C6.143,4.779 3.498,3.349 1.727,1.176 C1.418,1.705 1.241,2.324 1.241,2.982 C1.241,4.226 1.875,5.324 2.838,5.970 C2.250,5.951 1.696,5.788 1.211,5.519 C1.211,5.534 1.211,5.550 1.211,5.566 C1.211,7.304 2.450,8.755 4.092,9.085 C3.790,9.167 3.473,9.210 3.145,9.210 C2.914,9.210 2.690,9.189 2.471,9.146 C2.926,10.573 4.252,11.611 5.823,11.640 C4.594,12.603 3.047,13.177 1.366,13.177 C1.075,13.177 0.789,13.160 0.508,13.126 C2.098,14.144 3.985,14.739 6.012,14.739 C12.616,14.739 16.227,9.269 16.227,4.525 C16.227,4.370 16.223,4.215 16.215,4.060 C16.916,3.555 17.526,2.922 18.006,2.203 Z"/>
</svg>