<svg 
 xmlns="http://www.w3.org/2000/svg"
 xmlns:xlink="http://www.w3.org/1999/xlink"
 width="18px" height="16px">
<path fill-rule="evenodd"  fill="rgb(255, 255, 255)"
 d="M17.478,8.005 L14.810,8.005 L14.810,10.675 C14.810,10.878 14.644,11.042 14.441,11.042 L13.682,11.042 C13.477,11.042 13.312,10.878 13.312,10.675 L13.312,8.005 L10.644,8.005 C10.441,8.005 10.273,7.841 10.273,7.635 L10.273,6.876 C10.273,6.673 10.441,6.507 10.644,6.507 L13.312,6.507 L13.312,3.839 C13.312,3.635 13.477,3.470 13.682,3.470 L14.441,3.470 C14.644,3.470 14.810,3.635 14.810,3.839 L14.810,6.507 L17.478,6.507 C17.681,6.507 17.848,6.673 17.848,6.876 L17.848,7.635 C17.848,7.841 17.681,8.005 17.478,8.005 ZM9.480,1.481 C9.418,1.526 9.342,1.550 9.264,1.550 L8.887,1.550 C9.373,2.132 9.658,2.960 9.658,3.893 C9.658,4.921 9.137,5.893 8.191,6.636 C7.459,7.204 7.432,7.360 7.432,7.686 C7.439,7.866 7.951,8.448 8.512,8.847 C9.820,9.770 10.308,10.680 10.308,12.196 C10.308,13.778 9.105,15.149 7.244,15.688 C6.648,15.862 6.002,15.948 5.326,15.948 C4.572,15.948 3.846,15.862 3.172,15.690 C1.863,15.360 0.894,14.735 0.445,13.929 C0.250,13.581 0.152,13.208 0.152,12.821 C0.152,12.427 0.246,12.024 0.433,11.628 C1.148,10.098 3.039,9.071 5.131,9.071 C5.154,9.071 5.172,9.071 5.191,9.071 C5.021,8.772 4.939,8.464 4.939,8.135 C4.939,7.974 4.959,7.809 5.004,7.641 C2.808,7.591 1.166,5.983 1.166,3.862 C1.166,2.366 2.361,0.909 4.072,0.319 C4.586,0.141 5.107,0.052 5.621,0.052 L10.314,0.052 C10.475,0.052 10.615,0.155 10.666,0.308 C10.715,0.460 10.662,0.628 10.531,0.720 L9.480,1.481 ZM2.584,12.319 C2.584,13.520 3.783,14.460 5.316,14.460 C7.338,14.460 8.363,13.762 8.363,12.388 C8.363,12.257 8.348,12.124 8.314,11.989 C8.178,11.454 7.689,11.122 6.951,10.618 C6.848,10.548 6.744,10.475 6.633,10.401 C6.312,10.302 5.974,10.253 5.625,10.247 L5.582,10.247 C3.984,10.247 2.584,11.216 2.584,12.319 ZM7.236,4.032 C7.053,2.643 6.061,1.485 5.023,1.456 L4.982,1.456 C4.613,1.456 4.287,1.606 4.037,1.889 C3.650,2.331 3.486,3.028 3.588,3.805 C3.771,5.194 4.785,6.395 5.801,6.427 L5.818,6.427 C6.199,6.427 6.523,6.276 6.773,5.991 C7.164,5.544 7.338,4.811 7.236,4.032 Z"/>
</svg>