<svg 
 xmlns="http://www.w3.org/2000/svg"
 xmlns:xlink="http://www.w3.org/1999/xlink"
 width="18px" height="18px">
<path fill-rule="evenodd"  fill="rgb(255, 255, 255)"
 d="M17.759,7.355 C17.643,6.790 17.472,6.236 17.247,5.705 C17.026,5.184 16.755,4.681 16.436,4.213 C16.124,3.748 15.763,3.312 15.366,2.916 C14.968,2.518 14.532,2.156 14.067,1.843 C13.599,1.525 13.097,1.252 12.575,1.031 C12.046,0.808 11.489,0.637 10.925,0.521 C10.347,0.402 9.751,0.342 9.157,0.342 C8.561,0.342 7.967,0.402 7.387,0.521 C6.825,0.637 6.268,0.808 5.739,1.031 C5.217,1.252 4.715,1.525 4.247,1.843 C3.782,2.156 3.344,2.518 2.946,2.916 C2.551,3.312 2.190,3.748 1.875,4.213 C1.559,4.681 1.286,5.184 1.067,5.705 C0.842,6.236 0.668,6.790 0.553,7.355 C0.436,7.933 0.375,8.529 0.375,9.122 C0.375,9.718 0.436,10.314 0.553,10.890 C0.668,11.454 0.842,12.011 1.067,12.540 C1.286,13.062 1.559,13.564 1.875,14.035 C2.190,14.497 2.551,14.935 2.946,15.331 C3.344,15.730 3.782,16.089 4.247,16.402 C4.715,16.720 5.217,16.994 5.739,17.214 C6.268,17.436 6.825,17.608 7.387,17.723 C7.967,17.844 8.561,17.903 9.157,17.903 C9.751,17.903 10.347,17.844 10.925,17.723 C11.489,17.608 12.046,17.436 12.575,17.214 C13.097,16.994 13.599,16.720 14.067,16.402 C14.532,16.089 14.968,15.730 15.366,15.331 C15.763,14.935 16.124,14.497 16.436,14.035 C16.755,13.564 17.026,13.062 17.247,12.540 C17.472,12.011 17.643,11.454 17.759,10.890 C17.878,10.314 17.936,9.718 17.936,9.122 C17.936,8.529 17.878,7.933 17.759,7.355 ZM16.653,9.046 C16.544,9.025 14.007,8.478 11.431,8.802 C11.378,8.673 11.323,8.544 11.268,8.415 C11.112,8.048 10.944,7.685 10.770,7.327 C13.731,6.119 14.933,4.381 14.948,4.359 C15.999,5.636 16.636,7.269 16.653,9.046 ZM14.110,3.496 C14.091,3.525 13.022,5.150 10.192,6.211 C8.911,3.855 7.502,1.984 7.389,1.836 C7.957,1.699 8.547,1.625 9.157,1.625 C11.056,1.625 12.788,2.332 14.110,3.496 ZM7.360,1.842 L7.360,1.843 C7.360,1.843 7.350,1.846 7.336,1.848 C7.336,1.848 7.352,1.846 7.360,1.842 ZM5.957,2.342 C6.055,2.475 7.444,4.355 8.741,6.661 C5.141,7.618 2.016,7.580 1.817,7.577 C2.305,5.256 3.866,3.330 5.957,2.342 ZM1.657,9.122 C1.657,9.042 1.661,8.964 1.663,8.886 C1.795,8.888 5.502,8.972 9.362,7.818 C9.577,8.238 9.784,8.665 9.972,9.093 C9.872,9.119 9.774,9.150 9.675,9.181 C5.627,10.488 3.577,14.130 3.577,14.130 L3.579,14.134 C2.385,12.804 1.657,11.048 1.657,9.122 ZM9.157,16.622 C7.342,16.622 5.676,15.976 4.379,14.904 C4.477,14.984 4.547,15.034 4.547,15.034 C4.547,15.034 5.985,11.900 10.433,10.349 C10.450,10.343 10.466,10.337 10.481,10.335 C11.538,13.075 11.974,15.372 12.083,16.029 C11.185,16.410 10.196,16.622 9.157,16.622 ZM13.347,15.341 C13.270,14.890 12.870,12.689 11.888,9.986 C14.308,9.599 16.405,10.263 16.561,10.314 C16.228,12.403 15.032,14.206 13.347,15.341 Z"/>
</svg>