<svg 
 xmlns="http://www.w3.org/2000/svg"
 xmlns:xlink="http://www.w3.org/1999/xlink"
 width="18px" height="18px">
<path fill-rule="evenodd"  fill="rgb(255, 255, 255)"
 d="M14.529,17.520 L3.473,17.520 C1.715,17.520 0.289,16.095 0.289,14.339 L0.289,11.780 C0.289,10.022 1.715,8.597 3.473,8.597 L14.529,8.597 C16.287,8.597 17.711,10.022 17.711,11.780 L17.711,14.339 C17.711,16.095 16.287,17.520 14.529,17.520 ZM5.795,9.720 L2.748,9.720 L2.748,10.589 L3.775,10.589 L3.775,15.696 L4.768,15.696 L4.768,10.589 L5.795,10.589 L5.795,9.720 ZM8.699,11.286 L7.818,11.286 L7.818,14.635 C7.736,14.731 7.644,14.811 7.545,14.874 C7.445,14.936 7.363,14.966 7.299,14.966 C7.217,14.966 7.156,14.942 7.119,14.893 C7.084,14.848 7.062,14.774 7.062,14.669 L7.062,11.286 L6.182,11.286 L6.182,14.973 C6.182,15.237 6.234,15.432 6.338,15.563 C6.441,15.696 6.594,15.761 6.797,15.761 C6.963,15.761 7.133,15.716 7.311,15.620 C7.486,15.528 7.654,15.391 7.818,15.213 L7.818,15.696 L8.699,15.696 L8.699,11.286 ZM11.896,12.339 C11.896,11.977 11.824,11.702 11.678,11.514 C11.529,11.327 11.316,11.233 11.037,11.233 C10.900,11.233 10.766,11.268 10.631,11.339 C10.498,11.407 10.371,11.511 10.254,11.643 L10.254,9.720 L9.361,9.720 L9.361,15.696 L10.254,15.696 L10.254,15.356 C10.367,15.493 10.494,15.592 10.631,15.657 C10.764,15.722 10.918,15.753 11.092,15.753 C11.351,15.753 11.553,15.671 11.689,15.503 C11.828,15.337 11.896,15.097 11.896,14.786 L11.896,12.339 ZM14.953,14.227 L14.047,14.227 L14.047,14.428 C14.047,14.688 14.018,14.854 13.959,14.930 C13.900,15.006 13.799,15.046 13.652,15.046 C13.514,15.046 13.412,15.001 13.353,14.911 C13.295,14.821 13.269,14.661 13.269,14.428 L13.269,13.599 L14.953,13.599 L14.953,12.473 C14.953,12.053 14.846,11.735 14.629,11.512 C14.412,11.288 14.102,11.176 13.697,11.176 C13.303,11.176 12.984,11.298 12.734,11.538 C12.484,11.778 12.359,12.093 12.359,12.473 L12.359,14.454 C12.359,14.880 12.474,15.213 12.699,15.452 C12.926,15.696 13.236,15.815 13.633,15.815 C14.072,15.815 14.402,15.704 14.621,15.475 C14.844,15.245 14.953,14.905 14.953,14.454 L14.953,14.227 ZM13.269,12.466 C13.269,12.280 13.297,12.147 13.359,12.071 C13.420,11.989 13.521,11.948 13.660,11.948 C13.795,11.948 13.894,11.989 13.955,12.071 C14.016,12.147 14.047,12.280 14.047,12.466 L14.047,12.911 L13.269,12.911 L13.269,12.466 ZM10.676,15.061 C10.599,15.061 10.531,15.046 10.461,15.014 C10.394,14.985 10.324,14.928 10.254,14.858 L10.254,12.110 C10.312,12.052 10.373,12.003 10.436,11.975 C10.496,11.946 10.559,11.932 10.621,11.932 C10.740,11.932 10.832,11.972 10.896,12.047 C10.959,12.126 10.988,12.237 10.988,12.387 L10.988,14.665 C10.988,14.805 10.963,14.905 10.912,14.969 C10.861,15.032 10.783,15.061 10.676,15.061 ZM12.941,6.528 C12.762,6.725 12.570,6.876 12.371,6.981 C12.174,7.083 11.982,7.136 11.797,7.136 C11.566,7.136 11.394,7.061 11.277,6.917 C11.162,6.772 11.103,6.557 11.103,6.267 L11.103,2.208 L12.094,2.208 L12.094,5.930 C12.094,6.046 12.117,6.130 12.158,6.180 C12.197,6.233 12.266,6.259 12.359,6.259 C12.432,6.259 12.525,6.224 12.637,6.155 C12.748,6.089 12.850,6.001 12.941,5.895 L12.941,2.208 L13.936,2.208 L13.936,7.065 L12.941,7.065 L12.941,6.528 ZM8.850,7.186 C8.418,7.186 8.068,7.065 7.809,6.821 C7.549,6.575 7.418,6.249 7.418,5.835 L7.418,3.317 C7.418,2.940 7.551,2.641 7.818,2.419 C8.086,2.198 8.445,2.085 8.894,2.085 C9.307,2.085 9.643,2.202 9.906,2.438 C10.166,2.673 10.299,2.977 10.299,3.346 L10.299,5.854 C10.299,6.270 10.170,6.595 9.914,6.833 C9.654,7.069 9.301,7.186 8.850,7.186 ZM9.287,3.280 C9.287,3.176 9.246,3.091 9.166,3.024 C9.086,2.958 8.978,2.926 8.848,2.926 C8.727,2.926 8.629,2.958 8.551,3.024 C8.478,3.091 8.439,3.176 8.439,3.280 L8.439,5.928 C8.439,6.061 8.475,6.163 8.545,6.237 C8.615,6.309 8.715,6.345 8.848,6.345 C8.982,6.345 9.088,6.309 9.168,6.235 C9.248,6.161 9.287,6.057 9.287,5.928 L9.287,3.280 ZM6.037,7.065 L4.920,7.065 L4.920,4.456 L3.590,0.479 L4.715,0.479 L5.439,3.112 L5.512,3.112 L6.201,0.479 L7.338,0.479 L6.037,4.333 L6.037,7.065 Z"/>
</svg>