<svg 
 xmlns="http://www.w3.org/2000/svg"
 xmlns:xlink="http://www.w3.org/1999/xlink"
 width="48px" height="46px">
<path fill-rule="evenodd"  fill="rgb(255, 218, 0)"
 d="M47.752,14.126 C47.745,11.039 45.586,8.349 42.646,8.319 L33.068,8.319 L33.068,4.046 C33.064,2.309 31.658,0.900 29.922,0.897 L18.077,0.897 C16.336,0.900 14.931,2.309 14.928,4.046 L14.928,8.319 L5.352,8.319 C2.408,8.349 0.252,11.039 0.248,14.126 L0.248,19.679 C0.248,19.721 0.248,19.756 0.252,19.785 C0.248,19.814 0.248,19.850 0.248,19.891 C0.248,20.158 0.282,20.408 0.335,20.625 C0.629,21.815 1.422,22.779 2.557,23.609 L2.557,38.094 C2.561,41.954 5.703,45.097 9.565,45.102 L38.432,45.102 C42.291,45.097 45.435,41.954 45.441,38.094 L45.441,23.609 C46.574,22.777 47.365,21.812 47.660,20.619 C47.713,20.408 47.747,20.158 47.747,19.891 C47.747,19.845 47.747,19.807 47.745,19.780 C47.747,19.754 47.747,19.718 47.747,19.679 L47.752,14.126 ZM16.907,4.046 C16.909,3.408 17.437,2.877 18.077,2.877 L29.922,2.877 C30.560,2.877 31.090,3.408 31.092,4.046 L31.092,8.319 L16.902,8.319 L16.907,4.046 ZM43.460,24.791 L43.460,38.094 C43.455,40.852 41.193,43.115 38.432,43.123 L9.565,43.123 C6.805,43.115 4.543,40.852 4.535,38.094 L4.535,24.791 C4.604,24.825 4.688,24.855 4.756,24.889 C5.141,25.070 5.536,25.246 5.954,25.416 C9.076,26.650 13.295,27.533 18.101,27.941 L18.101,30.052 C18.106,31.418 19.207,32.521 20.574,32.524 L27.420,32.524 C28.785,32.521 29.889,31.418 29.892,30.052 L29.892,27.941 C32.025,27.760 34.035,27.485 35.892,27.127 C38.219,26.677 40.303,26.104 42.041,25.416 L42.041,25.416 L42.041,25.416 C42.465,25.244 42.859,25.066 43.248,24.885 C43.314,24.853 43.392,24.824 43.460,24.791 ZM20.078,26.093 L20.078,25.185 C20.078,24.921 20.310,24.690 20.574,24.690 L27.420,24.690 C27.684,24.690 27.915,24.921 27.915,25.185 L27.915,26.093 L27.915,26.096 L27.915,28.074 L27.915,28.077 L27.915,30.052 C27.915,30.314 27.684,30.545 27.420,30.545 L20.574,30.545 C20.310,30.545 20.078,30.314 20.078,30.052 L20.078,28.077 L20.078,28.074 L20.078,26.096 L20.078,26.093 ZM42.646,10.301 C44.228,10.302 45.766,11.914 45.768,14.126 L45.768,19.648 C45.766,19.678 45.764,19.721 45.764,19.780 C45.764,19.850 45.766,19.898 45.768,19.923 C45.766,19.996 45.754,20.084 45.730,20.192 C45.629,20.871 44.783,21.799 43.258,22.662 C43.147,22.724 43.031,22.785 42.918,22.844 C42.805,22.905 42.689,22.963 42.568,23.022 C42.424,23.094 42.272,23.164 42.116,23.234 C41.863,23.350 41.600,23.464 41.314,23.574 C39.203,24.412 36.445,25.096 33.285,25.561 C32.201,25.720 31.067,25.849 29.892,25.953 L29.892,25.185 C29.889,23.814 28.785,22.713 27.420,22.710 L20.574,22.710 C19.207,22.713 18.106,23.814 18.101,25.185 L18.101,25.953 C17.147,25.869 16.224,25.765 15.330,25.644 C11.910,25.179 8.928,24.466 6.681,23.574 C6.392,23.463 6.123,23.345 5.861,23.227 C5.719,23.162 5.584,23.097 5.453,23.033 C5.314,22.967 5.184,22.900 5.055,22.834 C4.949,22.777 4.847,22.724 4.746,22.670 C3.215,21.803 2.369,20.875 2.266,20.199 C2.243,20.090 2.230,20.004 2.225,19.934 C2.225,19.915 2.230,19.880 2.234,19.828 L2.236,19.775 L2.234,19.724 C2.230,19.677 2.225,19.641 2.225,19.621 L2.225,14.126 C2.225,11.914 3.766,10.302 5.352,10.301 L42.646,10.301 Z"/>
</svg>