<svg 
 xmlns="http://www.w3.org/2000/svg"
 xmlns:xlink="http://www.w3.org/1999/xlink"
 width="47px" height="46px">
<path fill-rule="evenodd"  fill="rgb(255, 218, 0)"
 d="M26.516,8.278 C26.523,4.820 29.320,2.023 32.778,2.019 C35.433,2.023 37.582,4.170 37.589,6.826 C37.582,8.838 35.953,10.468 33.945,10.472 C32.441,10.469 31.232,9.255 31.226,7.756 L29.220,7.756 L29.217,7.756 C29.220,10.363 31.331,12.480 33.945,12.480 C37.062,12.480 39.597,9.950 39.597,6.826 C39.597,3.060 36.543,0.010 32.778,0.008 C28.210,0.010 24.509,3.710 24.509,8.278 L24.509,14.535 L26.521,14.535 L26.516,8.278 ZM13.811,45.992 L38.798,45.992 L38.798,43.982 L13.811,43.982 L13.811,45.992 ZM5.750,16.431 L5.750,17.435 L5.750,17.435 C5.753,18.980 5.875,20.490 6.094,21.963 C2.861,22.578 0.415,25.416 0.415,28.828 C0.415,32.691 3.546,35.820 7.408,35.822 C8.861,35.822 10.212,35.375 11.330,34.618 C15.023,39.416 20.259,42.443 26.166,42.466 C37.621,42.424 46.564,31.105 46.584,17.435 L46.584,17.435 L46.584,16.431 L5.750,16.431 ZM7.408,33.811 C4.656,33.807 2.428,31.580 2.423,28.828 C2.428,26.402 4.162,24.388 6.459,23.942 C7.191,27.271 8.462,30.334 10.169,32.973 C9.380,33.500 8.431,33.809 7.408,33.811 ZM39.112,33.793 C35.747,37.949 31.180,40.455 26.166,40.455 C21.152,40.455 16.587,37.949 13.219,33.793 C13.081,33.619 12.959,33.429 12.824,33.252 C12.396,32.690 11.992,32.097 11.613,31.482 C10.244,29.271 9.193,26.740 8.537,23.986 C8.374,23.295 8.235,22.591 8.122,21.871 C7.947,20.750 7.816,19.610 7.774,18.439 L44.554,18.439 C44.352,24.454 42.294,29.857 39.112,33.793 Z"/>
</svg>