<svg 
 xmlns="http://www.w3.org/2000/svg"
 xmlns:xlink="http://www.w3.org/1999/xlink"
 width="43px" height="42px">
<path fill-rule="evenodd"  fill="rgb(255, 218, 0)"
 d="M36.482,7.497 L40.000,11.017 C40.209,11.224 40.314,11.499 40.316,11.784 C40.314,12.070 40.209,12.344 39.998,12.554 L40.000,12.554 L17.601,34.951 L19.078,36.429 L41.478,14.030 C42.095,13.412 42.404,12.592 42.404,11.784 C42.404,10.974 42.095,10.156 41.476,9.540 L32.960,1.025 C32.341,0.404 31.523,0.096 30.713,0.096 C29.904,0.096 29.086,0.404 28.466,1.025 L6.071,23.421 L7.548,24.898 L29.945,2.501 C30.157,2.290 30.429,2.185 30.713,2.183 C30.998,2.185 31.271,2.290 31.482,2.501 L35.004,6.021 L13.761,27.263 L15.238,28.740 L36.482,7.497 ZM4.765,29.160 C4.332,28.735 3.822,28.396 3.143,28.384 C2.613,28.370 2.065,28.677 1.787,29.081 C1.494,29.484 1.375,29.934 1.332,30.415 L0.609,38.853 L0.607,38.853 C0.599,38.940 0.596,39.032 0.596,39.126 C0.592,39.882 0.882,40.599 1.394,41.105 C1.899,41.611 2.611,41.904 3.365,41.904 L3.373,41.904 C3.453,41.904 3.535,41.900 3.619,41.894 L12.090,41.169 C12.568,41.126 13.019,41.005 13.420,40.712 C13.824,40.431 14.129,39.888 14.117,39.358 C14.105,38.679 13.767,38.167 13.342,37.737 L4.765,29.160 ZM3.460,39.812 C3.439,39.812 3.405,39.816 3.373,39.816 C2.910,39.782 2.715,39.588 2.683,39.126 C2.683,39.122 2.681,39.093 2.678,39.040 L2.688,39.040 L3.398,30.747 L11.754,39.103 L3.460,39.812 Z"/>
</svg>