<svg 
 xmlns="http://www.w3.org/2000/svg"
 xmlns:xlink="http://www.w3.org/1999/xlink"
 width="47px" height="42px">
<path fill-rule="evenodd"  fill="rgb(255, 218, 0)"
 d="M22.809,40.700 C22.755,40.652 22.721,40.616 22.712,40.609 L22.712,40.609 L23.084,40.261 L22.709,40.604 C16.526,34.417 11.012,29.046 7.009,24.475 L7.009,24.475 C3.033,19.884 0.444,16.200 0.384,12.813 L0.384,12.813 C0.384,12.754 0.379,12.669 0.389,12.557 L0.389,12.557 C0.428,5.956 5.775,0.630 12.383,0.618 L12.383,0.618 C17.186,0.618 21.321,3.456 23.229,7.544 L23.229,7.544 L23.496,8.118 L23.505,8.102 L23.765,7.540 C25.680,3.456 29.817,0.618 34.622,0.618 L34.622,0.618 C41.250,0.630 46.598,5.985 46.610,12.563 L46.610,12.563 C46.613,12.653 46.613,12.739 46.617,12.819 L46.617,12.819 C46.555,16.204 43.963,19.886 39.988,24.478 L39.988,24.478 C35.991,29.040 30.491,34.403 24.317,40.577 L24.317,40.577 C24.297,40.597 24.282,40.616 24.271,40.628 L24.271,40.628 L24.271,40.628 L23.576,41.382 L22.809,40.700 L22.809,40.700 ZM2.477,12.610 L2.475,12.667 L2.475,12.702 C2.475,12.704 2.472,12.745 2.472,12.813 L2.472,12.813 C2.415,15.003 4.643,18.654 8.582,23.098 L8.582,23.098 C12.354,27.409 17.600,32.552 23.500,38.440 L23.500,38.440 C29.413,32.538 34.649,27.405 38.415,23.103 L38.415,23.103 C42.355,18.659 44.586,15.008 44.530,12.819 L44.530,12.819 C44.530,12.759 44.526,12.702 44.522,12.610 L44.522,12.610 C44.510,7.134 40.100,2.717 34.622,2.706 L34.622,2.706 C30.661,2.706 27.241,5.048 25.657,8.424 L25.657,8.424 L25.397,8.987 L25.247,9.302 L25.214,9.354 C24.872,9.895 24.252,10.308 23.500,10.308 L23.500,10.308 C22.707,10.308 22.049,9.842 21.702,9.210 L21.702,9.210 C21.693,9.190 21.651,9.118 21.602,8.999 L21.602,8.999 L21.336,8.425 C19.759,5.048 16.346,2.706 12.385,2.706 L12.385,2.706 C6.908,2.716 2.487,7.134 2.477,12.610 L2.477,12.610 ZM23.555,8.259 C23.555,8.259 23.559,8.263 23.544,8.229 L23.544,8.229 L23.544,8.229 L23.555,8.259 L23.555,8.259 Z"/>
</svg>